<?xml version="1.0" encoding="UTF-8" standalone="no"?>
<svg width="17px" height="13px" viewBox="0 0 17 13" version="1.1" xmlns="http://www.w3.org/2000/svg" xmlns:xlink="http://www.w3.org/1999/xlink">
    <!-- Generator: Sketch 50.2 (55047) - http://www.bohemiancoding.com/sketch -->
    <title>icon</title>
    <desc>Created with Sketch.</desc>
    <defs>
        <polygon id="path-1" points="0 4.72727273e-05 16.5454545 4.72727273e-05 16.5454545 12.7929927 0 12.7929927"></polygon>
    </defs>
    <g id="Page-1" stroke="none" stroke-width="1" fill="none" fill-rule="evenodd">
        <g id="Profile-v1" transform="translate(-628.000000, -939.000000)">
            <g id="Section-4" transform="translate(421.000000, 792.000000)">
                <g id="Share" transform="translate(199.000000, 146.000000)">
                    <g id="icon" transform="translate(8.000000, 1.000000)">
                        <mask id="mask-2" fill="white">
                            <use xlink:href="#path-1"></use>
                        </mask>
                        <g id="Clip-2"></g>
                        <path d="M0.443181818,12.7929927 L0.332327273,12.7929927 C0.147727273,12.75612 0,12.57152 0,12.3498109 C0,8.28742909 1.4404,3.44930182 8.16210909,3.19072 L8.16210909,0.457883636 C8.16210909,0.310156364 8.23585455,0.125556364 8.38358182,0.0515745455 C8.53130909,-0.0224072727 8.71590909,-0.0224072727 8.82676364,0.0884472727 L16.3608545,5.44373818 C16.4717091,5.51748364 16.5454545,5.66521091 16.5454545,5.81293818 C16.5454545,5.96066545 16.4717091,6.10839273 16.3608545,6.18213818 L8.82676364,11.4634473 C8.67903636,11.5743018 8.53130909,11.5743018 8.38358182,11.50032 C8.23585455,11.4265745 8.16210909,11.2788473 8.16210909,11.0942473 L8.16210909,8.39828364 C5.61363636,8.39828364 3.02852727,8.61975636 0.812618182,12.5346473 C0.738636364,12.7192473 0.590909091,12.7929927 0.443181818,12.7929927 Z M9.01136364,1.30737455 L9.01136364,3.63390182 C9.01136364,3.89248364 8.82676364,4.07708364 8.56818182,4.07708364 C3.91489091,4.11395636 1.40352727,6.29299273 0.923236364,10.7248109 C3.32398182,7.54879273 6.09392727,7.54879273 8.56818182,7.54879273 C8.67903636,7.54879273 8.78989091,7.58566545 8.86363636,7.69652 C8.93761818,7.77026545 9.01136364,7.88112 9.01136364,7.99197455 L9.01136364,10.2816291 L15.3267636,5.81293818 L9.01136364,1.30737455 Z" id="Fill-1" fill="#5C0E61" mask="url(#mask-2)"></path>
                    </g>
                </g>
            </g>
        </g>
    </g>
</svg>