<?xml version="1.0" encoding="UTF-8" standalone="no"?>
<svg width="17px" height="16px" viewBox="0 0 17 16" version="1.1" xmlns="http://www.w3.org/2000/svg" xmlns:xlink="http://www.w3.org/1999/xlink">
    <!-- Generator: Sketch 50.2 (55047) - http://www.bohemiancoding.com/sketch -->
    <title>like@1x</title>
    <desc>Created with Sketch.</desc>
    <defs></defs>
    <g id="Page-1" stroke="none" stroke-width="1" fill="none" fill-rule="evenodd">
        <g id="Profile-v1" transform="translate(-436.000000, -937.000000)" fill="#5C0E61">
            <g id="Section-4" transform="translate(421.000000, 792.000000)">
                <g id="like" transform="translate(0.000000, 145.000000)">
                    <g transform="translate(15.000000, 0.000000)" id="Fill-1">
                        <path d="M16.0907755,6.23497143 C15.5268571,5.4261551 14.5727347,5.2308898 14.3023673,5.18125714 L14.1799184,5.18125714 L10.7513469,5.18125714 L10.7513469,1.99758367 C10.7513469,1.40950204 10.5547755,0.943869388 10.1874286,0.602318367 C9.57518367,0.0142367347 8.59559184,-0.0344163265 7.90955102,0.0142367347 C7.44391837,0.0384 7.07657143,0.455379592 7.10073469,0.94517551 C7.37110204,6.08672653 4.23738776,6.40574694 4.11493878,6.40574694 L4.11493878,6.45407347 C3.87004082,6.13537959 3.47853061,5.91595102 3.03706122,5.91595102 L1.34693878,5.91595102 C0.588081633,5.91595102 0,6.52819592 0,7.2628898 L0,14.0958694 C0,14.8547265 0.612244898,15.4428082 1.34693878,15.4428082 L3.03706122,15.4428082 C3.45273469,15.4428082 3.82008163,15.2462367 4.06497959,14.9771755 C4.60473469,15.5410939 5.36359184,15.7118694 5.85338776,15.7118694 L12.7105306,15.7118694 C14.5955918,15.7118694 15.2819592,14.1683592 15.4044082,13.3370122 L16.384,8.21831837 C16.5547755,7.43366531 16.4581224,6.77309388 16.0907755,6.23497143 Z M3.40440816,14.1200327 C3.40440816,14.3407673 3.23363265,14.4873796 3.03706122,14.4873796 L1.34693878,14.4873796 C1.12620408,14.4873796 0.979591837,14.3166041 0.979591837,14.1200327 L0.979591837,7.2628898 C0.979591837,7.0421551 1.15069388,6.89554286 1.34693878,6.89554286 L3.03706122,6.89554286 C3.25779592,6.89554286 3.40440816,7.06631837 3.40440816,7.2628898 L3.40440816,14.1200327 Z M15.4044082,8.02174694 L14.4248163,13.1646041 L14.4248163,13.1887673 C14.4006531,13.3357061 14.1799184,14.7322776 12.7105306,14.7322776 L5.85338776,14.7322776 C5.6084898,14.7322776 4.384,14.6339918 4.384,13.2628898 L4.384,7.36117551 C5.24114286,7.19007347 8.32653061,6.25913469 8.08163265,0.969665306 C8.71804082,0.94517551 9.25779592,1.06762449 9.50269388,1.31252245 C9.67346939,1.45946122 9.74759184,1.70435918 9.74759184,1.9988898 L9.74759184,5.30501224 C9.74759184,5.79480816 10.139102,6.1621551 10.6047347,6.1621551 L14.107102,6.1621551 C14.1812245,6.1621551 14.890449,6.28460408 15.2336327,6.79856327 C15.4785306,7.09211429 15.5268571,7.50778776 15.4044082,8.02174694 Z"></path>
                    </g>
                </g>
            </g>
        </g>
    </g>
</svg>