<?xml version="1.0" encoding="UTF-8" standalone="no"?>
<svg width="20px" height="20px" viewBox="0 0 20 20" version="1.1" xmlns="http://www.w3.org/2000/svg" xmlns:xlink="http://www.w3.org/1999/xlink" >
    <!-- Generator: Sketch 50.2 (55047) - http://www.bohemiancoding.com/sketch -->
    <title>icon</title>
    <desc>Created with Sketch.</desc>
    <defs></defs>
    <g id="Page-1" stroke="none" stroke-width="1" fill-rule="evenodd">
        <g id="Profile-v1" transform="translate(-363.000000, -148.000000)" >
            <g id="Section-1-" transform="translate(111.000000, 135.000000)">
                <path d="M266.888889,13 C266.687407,13 266.510519,13.0936296 266.388741,13.2361481 C266.335704,13.2974815 254.506963,25.3158519 254.402667,25.4237037 C254.336889,25.4918519 254.288296,25.5762963 254.256889,25.6666667 C254.256889,25.6666667 252.064889,32.0311111 252.034667,32.1179259 C252.011556,32.1851852 252,32.2592593 252,32.3333333 C252,32.7013333 252.298667,33 252.666667,33 C252.759111,33 252.850667,32.9792593 252.930667,32.9442963 C252.99763,32.9143704 259.326519,30.736 259.326519,30.736 C259.422519,30.7048889 259.510519,30.6527407 259.583407,30.5834074 C259.583407,30.5834074 271.73037,18.4293333 271.798519,18.3623704 C271.92237,18.2417778 272,18.0752593 272,17.8888889 C272,17.6885926 271.910815,17.5105185 271.770963,17.3899259 C271.708444,17.3357037 267.440889,13.2882963 267.389037,13.229037 C267.267259,13.0891852 267.088,13 266.888889,13 Z M266.902815,14.6041481 L270.375111,17.9028148 L267.874963,20.4026667 L264.513778,17.0417778 L266.902815,14.6041481 Z M263.576296,17.9931852 L264.708444,19.125037 L257.215407,26.6180741 L257.083259,26.1457778 C257.021926,25.9294815 256.841481,25.7487407 256.624889,25.6874074 L256.152889,25.5555556 L263.576296,17.9931852 Z M265.652741,20.0693333 L266.930667,21.3472593 L259.472296,28.7985185 L259.312593,28.1668148 C259.254519,27.9327407 259.060148,27.7383704 258.82637,27.6805926 L258.19437,27.5208889 L265.652741,20.0693333 Z M255.312593,26.7013333 L255.90963,26.8681481 C255.90963,26.8681481 256.039407,27.5834074 256.222222,27.8888889 C256.384296,28.1585185 256.616889,28.3994074 256.888889,28.5555556 C257.255704,28.7674074 258.117926,28.8820741 258.117926,28.8820741 L258.319407,29.6805926 L256.43763,30.3265185 L254.673481,28.5623704 L255.312593,26.7013333 Z M254.187556,29.9582222 L255.041778,30.8124444 L253.743111,31.2568889 L254.187556,29.9582222 Z" id="icon"></path>
            </g>
        </g>
    </g>
</svg>